<svg xmlns="http://www.w3.org/2000/svg" width="14.326" height="11.67" viewBox="0 0 14.326 11.67"><g fill-rule="evenodd" clip-rule="evenodd" fill="#474747"><path d="M9.698 3.53c.164 0 .327.013.488.03C9.748 1.52 7.564 0 5.07 0 2.284 0 0 1.9 0 4.312c0 1.393.76 2.536 2.03 3.423L1.52 9.26l1.773-.888c.634.126 1.143.255 1.776.255.16 0 .318-.008.474-.02-.1-.34-.157-.695-.157-1.063 0-2.215 1.903-4.013 4.31-4.013zM6.972 2.157c.382 0 .635.25.635.633 0 .38-.253.634-.635.634-.38 0-.76-.255-.76-.635 0-.383.38-.634.76-.634zm-3.55 1.268c-.38 0-.763-.255-.763-.635 0-.383.383-.634.763-.634s.633.25.633.633c0 .38-.253.634-.633.634z"/><path d="M14.326 7.483c0-2.027-2.03-3.68-4.307-3.68-2.414 0-4.314 1.652-4.314 3.68 0 2.03 1.9 3.68 4.313 3.68.504 0 1.013-.127 1.52-.254l1.39.76-.38-1.266c1.018-.765 1.776-1.777 1.776-2.92zM8.62 6.85c-.25 0-.506-.252-.506-.508 0-.253.255-.507.507-.507.385 0 .636.254.636.507 0 .255-.252.507-.635.507zm2.79 0c-.25 0-.504-.252-.504-.508 0-.253.253-.507.504-.507.38 0 .635.254.635.507 0 .255-.255.507-.635.507z"/></g></svg>