<svg xmlns="http://www.w3.org/2000/svg" width="14.815" height="11.837" viewBox="0 0 14.815 11.837"><g fill="#474747"><path d="M10.972 5.762c-.576-.112-.296-.422-.296-.422s.564-.93-.112-1.605c-.837-.837-2.87.106-2.87.106-.778.242-.572-.11-.462-.707 0-.704-.24-1.896-2.31-1.192-2.07.71-3.844 3.19-3.844 3.19C-.156 6.775.008 8.05.008 8.05c.307 2.81 3.294 3.582 5.617 3.765 2.444.192 5.742-.842 6.743-2.967 1-2.128-.818-2.97-1.396-3.086zm-5.166 5.26C3.38 11.135 1.42 9.92 1.42 8.3c0-1.62 1.96-2.92 4.386-3.032 2.428-.112 4.393.888 4.393 2.506 0 1.618-1.966 3.138-4.394 3.248z"/><path d="M5.322 6.335c-2.44.285-2.158 2.57-2.158 2.57S3.14 9.63 3.818 10c1.428.773 2.898.305 3.64-.654.744-.96.308-3.293-2.136-3.01zm-.615 3.208c-.456.053-.823-.21-.823-.59s.326-.777.782-.824c.523-.052.864.25.864.63s-.37.73-.823.783zm1.438-1.226c-.154.116-.344.1-.426-.04-.086-.133-.054-.35.102-.463.18-.135.37-.096.45.04.082.137.024.344-.127.463zM12.16 4.772c.197 0 .364-.145.392-.335.004-.014.005-.027.005-.043.298-2.68-2.196-2.218-2.196-2.218-.22 0-.398.18-.398.403 0 .22.178.398.4.398 1.79-.395 1.395 1.396 1.395 1.396 0 .22.18.398.403.398z"/><path d="M11.87.095c-.862-.202-1.75-.028-1.997.02-.02.002-.037.02-.055.023-.01.002-.014.01-.014.01-.245.07-.424.297-.424.565 0 .32.26.582.582.582 0 0 .314-.042.527-.125.21-.085 1.996-.063 2.883 1.426.484 1.087.213 1.815.18 1.93 0 0-.116.284-.116.562 0 .32.26.523.58.523.268 0 .493-.036.56-.49h.003c.95-3.173-1.168-4.665-2.71-5.025z"/></g></svg>